<?xml version="1.0" encoding="UTF-8"?>
<svg id="Layer_2" data-name="Layer 2" xmlns="http://www.w3.org/2000/svg" viewBox="0 0 62.8 62.6">
  <defs>
    <style>
      .cls-1 {
        fill: #fff;
      }
    </style>
  </defs>
  <g id="Layer_1-2" data-name="Layer 1">
    <path class="cls-1" d="m4.25,26.15c1.4-1.4.5-2.9-1-3-2.5-.2-3.9-2.8-1.9-5,2.2-2,4.9-.6,5,1.9.1,1.5,1.6,2.4,3,1l3.3-3.3c1-1,2.6-1,3.6,0l3.3,3.3c1.4,1.4,2.9.5,2.9-1,.2-2.5,2.8-3.9,5-1.8,2,2.2.6,4.9-1.9,5-1.5.1-2.4,1.6-1,2.9l3.4,3.4c1,1,1,2.6,0,3.6h0l-2.4,2.4c-.3-.8-.7-1.5-1.3-2.1-2.1-2.1-5.2-2-7.5.1l-.1.1-.1.1c-2.1,2.3-2.2,5.5-.1,7.5.6.6,1.3,1,2.1,1.3l-2.3,2.3c-1,1-2.7,1-3.7,0l-3.3-3.3c-1.4-1.4-2.8-.6-2.9,1-.2,2.5-2.8,3.9-5,1.8-2-2.2-.6-4.9,1.8-5,1.5-.1,2.3-1.5.9-2.9l-3.3-3.3c-1-1-1-2.6,0-3.6l3.5-3.4Zm13.8-13.8c-1,1-1,2.7,0,3.7l2.3,2.3c.3-.8.7-1.5,1.3-2.1,2-2,5.2-2,7.5.1l.1.1.1.1c2.1,2.3,2.2,5.5.1,7.5-.6.6-1.3,1-2.1,1.3l2.4,2.4h0c1,1,2.6,1,3.6,0l3.4-3.4c1.4-1.4,2.8-.5,2.9,1,.2,2.5,2.8,3.9,5,1.9,2-2.2.6-4.8-1.8-5-1.5-.1-2.4-1.6-1-2.9l3.3-3.3c1-1,1-2.6,0-3.6l-3.3-3.3c-1.4-1.4-.5-2.9,1-3,2.5-.2,3.9-2.8,1.9-5-2.2-2-4.9-.6-5,1.9-.1,1.5-1.6,2.4-3,1l-3.3-3.3c-1-1-2.6-1-3.6,0l-3.3,3.3c-1.4,1.4-2.8.6-2.9-.9-.2-2.5-2.8-3.9-5-1.8-2,2.2-.6,4.8,1.8,5,1.5.1,2.3,1.5,1,2.9l-3.4,3.1Zm28.5,8.9c2,2,2,5.2-.1,7.5l-.1.1-.1.1c-2.3,2.1-5.5,2.2-7.5.1-.6-.6-1-1.3-1.3-2.1l-2.4,2.4h0c-1,1-1,2.6,0,3.6l3.4,3.4c1.4,1.4.5,2.8-1,2.9-2.5.2-3.9,2.8-1.9,5,2.2,2,4.8.6,5-1.8.1-1.5,1.6-2.4,2.9-1l3.3,3.3c1,1,2.6,1,3.6,0l3.3-3.3c1.4-1.4,2.9-.5,3,1,.2,2.5,2.8,3.9,5,1.9,2-2.2.6-4.9-1.9-5-1.5-.1-2.4-1.6-1-3l3.3-3.3c1-1,1-2.6,0-3.6l-3.3-3.3c-1.4-1.4-.6-2.8.9-2.9,2.5-.2,3.9-2.8,1.8-5-2.2-2-4.8-.6-5,1.8-.1,1.5-1.5,2.3-2.9,1l-3.3-3.3c-1-1-2.7-1-3.7,0l-2.3,2.3c1,.2,1.7.6,2.3,1.2Zm-26.3,35.2c-2.5.2-3.9,2.8-1.9,5,2.2,2,4.9.6,5-1.9.1-1.5,1.6-2.4,3-1l3.3,3.3c1,1,2.6,1,3.6,0l3.3-3.3c1.4-1.4,2.8-.6,2.9.9.2,2.5,2.8,3.9,5,1.8,2-2.2.6-4.8-1.8-5-1.5-.1-2.3-1.5-1-2.9l3.3-3.3c1-1,1-2.7,0-3.7l-2.3-2.3c-.3.8-.7,1.5-1.3,2.1-2,2-5.2,2-7.5-.1l-.1-.1-.1-.1c-2.1-2.3-2.2-5.5-.1-7.5.6-.6,1.3-1,2.1-1.3l-2.4-2.4h0c-1-1-2.6-1-3.6,0l-3.4,3.4c-1.4,1.4-2.8.5-2.9-1-.2-2.5-2.8-3.9-5-1.9-2,2.2-.6,4.8,1.8,5,1.5.1,2.4,1.6,1,2.9l-3.3,3.3c-1,1-1,2.6,0,3.6l3.3,3.3c1.5,1.6.6,3.1-.9,3.2Z"/>
  </g>
</svg>